<svg width="388" height="184" viewBox="0 0 388 184" fill="none" xmlns="http://www.w3.org/2000/svg">
<g id="logo">
<g id="subhead">
<path id="a" d="M19.28 137.79L31.07 181.55H24.35L22.5 174.63H12.06L10.21 181.55H3.5L15.29 137.79H19.28ZM13.94 167.68H20.63L17.32 153.69L13.95 167.68H13.94Z" fill="#8BB9D3"/>
<path id="n" d="M56.16 163.4V138H62.73V183.32L42.7 156.22V181.42H36.13V136.25L56.16 163.41V163.4Z" fill="#8BB9D3"/>
<path id="i2" d="M69.77 137.99H76.34V181.4H69.77V137.99V137.99Z" fill="#8BB9D3"/>
<path id="m2" d="M99.69 161.22L109.43 146.29L116 136.23V181.4H109.43V158.32L99.69 173.25L89.95 158.32V181.4H83.38V136.23L89.95 146.29L99.69 161.22V161.22Z" fill="#8BB9D3"/>
<path id="a2" d="M129.99 175.57L127.67 181.55H120.63L138.05 136.26L155.44 181.55H148.4L146.11 175.57H129.98H129.99ZM132.51 169H143.6L138.06 154.6L132.52 169H132.51Z" fill="#8BB9D3"/>
<path id="l" d="M160.27 138.23H166.87V174.84H181.86V181.41H160.27V138.23V138.23Z" fill="#8BB9D3"/>
<path id="r3" d="M216 169.35V181.35H209.43V138.17H216V138.2C216.39 138.18 216.78 138.17 217.17 138.17C221.26 138.17 224.74 139.7 227.61 142.75C230.48 145.8 231.92 149.48 231.92 153.78C231.92 158.08 230.48 161.79 227.61 164.84C226.89 165.6 226.13 166.27 225.35 166.83L233.18 181.47H226.14L219.63 169.21C218.83 169.35 218.01 169.42 217.17 169.42C216.78 169.42 216.39 169.4 216 169.36V169.35ZM216 144.65V162.9C216.37 162.96 216.76 162.99 217.17 162.99C219.58 162.99 221.62 162.09 223.32 160.29C225.01 158.49 225.86 156.32 225.86 153.78C225.86 151.24 225.01 149.07 223.32 147.28C221.63 145.49 219.58 144.6 217.17 144.6C216.78 144.6 216.39 144.62 216 144.66V144.65Z" fill="#8BB9D3"/>
<path id="e1" d="M238.61 138.23H258.61V144.8H245.2V160.76H258.61V167.33H245.2V174.84H258.61V181.41H238.61V138.23V138.23Z" fill="#8BB9D3"/>
<path id="f" d="M265.66 138.23H285.66V144.8H272.25V160.76H285.66V167.33H272.25V181.41H265.65V138.23H265.66Z" fill="#8BB9D3"/>
<path id="u" d="M311.72 168.23V137.99H318.29V168.23C318.29 171.87 317.01 174.97 314.45 177.54C311.89 180.11 308.79 181.4 305.15 181.4C301.51 181.4 298.41 180.11 295.84 177.54C293.27 174.97 291.98 171.86 291.98 168.23V137.99H298.55V168.23C298.55 170.05 299.2 171.6 300.49 172.89C301.78 174.18 303.34 174.83 305.15 174.83C306.96 174.83 308.52 174.18 309.8 172.89C311.08 171.6 311.72 170.04 311.72 168.23Z" fill="#8BB9D3"/>
<path id="g" d="M349.16 174.51V167.32H344.61V160.75H354.79V179.87C352.25 180.89 349.53 181.4 346.64 181.4C343.55 181.4 340.67 180.83 337.99 179.68C335.31 178.54 332.96 176.99 330.95 175.03C328.94 173.07 327.35 170.78 326.18 168.15C325.02 165.52 324.43 162.7 324.43 159.69C324.43 156.68 325.01 153.87 326.18 151.2C327.35 148.53 328.93 146.22 330.95 144.26C332.96 142.3 335.31 140.76 337.99 139.63C340.67 138.5 343.55 137.93 346.64 137.93C349.53 137.93 352.25 138.43 354.79 139.43V147.03C354.07 146.58 353.3 146.19 352.5 145.86C350.66 145.1 348.71 144.72 346.63 144.72C344.55 144.72 342.57 145.1 340.73 145.86C338.89 146.62 337.29 147.68 335.92 149.04C334.55 150.4 333.48 151.99 332.69 153.82C331.91 155.65 331.52 157.61 331.52 159.7C331.52 161.79 331.91 163.75 332.69 165.58C333.47 167.41 334.55 169 335.92 170.36C337.29 171.72 338.89 172.79 340.73 173.56C342.57 174.33 344.53 174.72 346.63 174.72C347.49 174.72 348.33 174.65 349.15 174.51H349.16Z" fill="#8BB9D3"/>
<path id="e2" d="M361.83 138.23H381.83V144.8H368.42V160.76H381.83V167.33H368.42V174.84H381.83V181.41H361.83V138.23V138.23Z" fill="#8BB9D3"/>
</g>
<g id="morris">
<path id="m" d="M175.63 42.94C175.54 44.67 175.52 46.41 175.5 48.15C175.46 49.94 175.44 51.74 175.45 53.53C175.47 55.35 175.54 57.18 175.54 59C175.56 60.78 175.59 62.56 175.6 64.33C175.62 66.03 175.66 67.73 175.68 69.44C175.8 71.26 175.77 73.09 175.85 74.92C175.87 76.92 175.77 78.92 175.68 80.92C175.62 82.63 175.61 84.34 175.59 86.06C175.63 87.86 175.54 89.65 175.43 91.45C175.35 93.05 175.33 94.64 175.29 96.24C175.29 97.66 175.26 99.08 175.37 100.5C175.5 102.07 175.6 103.65 175.71 105.22C175.81 106.86 175.85 108.51 175.92 110.16C175.97 111.81 176 113.47 176.06 115.13C176.1 116.79 176.13 118.44 176.17 120.1C176.22 120.99 176.2 121.86 176.13 122.74C176.11 123.7 163.11 123.53 163.13 122.57C163.05 121.87 163.08 121.16 163.05 120.46C163.03 118.81 162.98 117.17 162.94 115.52C162.92 113.89 162.86 112.27 162.82 110.65C162.78 109.09 162.72 107.53 162.65 105.97C162.59 104.49 162.5 103.01 162.37 101.54C162.23 99.76 162.08 97.99 162.17 96.2C162.17 94.45 162.22 92.7 162.3 90.96C162.36 89.36 162.48 87.76 162.42 86.16C162.4 84.34 162.41 82.51 162.44 80.69C162.46 78.89 162.52 77.08 162.59 75.28C162.59 73.45 162.5 71.62 162.54 69.79C162.49 68.09 162.46 66.38 162.42 64.68C162.36 62.89 162.33 61.1 162.29 59.31C162.24 57.45 162.25 55.59 162.23 53.73C162.21 51.85 162.18 49.96 162.19 48.07C162.23 46.06 162.29 44.05 162.49 42.04C162.65 40.6 162.81 39.15 162.89 37.7C162.85 35.99 162.89 34.28 162.81 32.58C162.78 30.96 162.73 29.33 162.67 27.71C162.63 26.16 162.56 24.61 162.45 23.07C162.37 21.76 162.26 20.45 162.05 19.17C161.94 18.51 161.82 17.79 161.46 17.23C161.06 16.75 160.63 16.23 160.11 15.91C159.51 15.43 159.61 15.53 159.07 15.29C158.59 15.08 158.6 14.89 158.62 15.17C158.57 15.15 158.34 15.07 158.12 15.01H158.07C157.96 15.01 157.85 15.01 157.74 15.02C157.74 15.08 157.75 15.13 157.72 15.14C157.34 15.18 156.96 14.99 156.58 15.06C155.4 15.06 155.59 15.05 156.2 15.04C155.95 15.01 155.74 14.93 155.72 14.73C154.49 15.24 156.36 14.44 154.59 15.34C154.19 15.55 153.83 15.27 153.54 15.83C153.2 15.89 152.85 16.02 152.68 16.34C152.36 17.05 152 17.63 151.91 18.4C151.68 19.77 151.67 21.17 151.57 22.55C151.45 24.17 151.26 25.77 151 27.37C150.83 28.73 150.88 30.11 150.8 31.47C150.71 32.91 150.59 34.36 150.55 35.8C150.55 36.71 150.5 37.62 150.47 38.53C150.61 40.28 150.73 42.03 150.82 43.78C150.89 45.58 150.92 47.38 150.97 49.18C151.01 50.89 151.03 52.61 151.08 54.32C151.13 56.11 151.21 57.9 151.23 59.69C151.26 61.46 151.3 63.22 151.31 64.99C151.34 66.78 151.41 68.57 151.46 70.36C151.45 72.21 151.56 74.06 151.59 75.91C151.52 77.71 151.39 79.51 151.34 81.32C151.34 82.98 151.22 84.63 151.08 86.28C151 87.36 150.97 88.45 150.95 89.53C150.99 91.01 151.03 92.49 151.12 93.97C151.2 96.54 151.22 99.11 151.17 101.69C151.15 103.82 151.22 105.94 151.25 108.07C151.22 109.17 151.2 110.27 151.19 111.36C151.22 112.55 151.25 113.74 151.26 114.92C151.29 116.58 151.34 118.24 151.36 119.89C151.36 120.9 151.47 121.99 151.23 122.99L138.49 123.33C138.22 122.34 138.28 121.25 138.24 120.24C138.19 118.58 138.17 116.92 138.14 115.27C138.11 114.16 138.09 113.04 138.07 111.93C138.02 110.76 137.95 109.58 137.87 108.41C137.81 106.28 137.79 104.16 137.69 102.03C137.53 99.46 137.44 96.89 137.42 94.32C137.47 92 137.42 89.69 137.41 87.37C137.4 85.35 137.38 83.33 137.38 81.3C137.37 79.51 137.33 77.71 137.32 75.92C137.3 74.22 137.25 72.51 137.23 70.81C137.15 69.01 137.23 67.21 137.32 65.41C137.39 63.81 137.41 62.21 137.44 60.62C137.45 59 137.43 57.38 137.42 55.76C137.4 54.12 137.36 52.47 137.35 50.83C137.32 49.18 137.28 47.52 137.26 45.87C137.19 44.08 137.2 42.3 137.29 40.51C137.32 39.97 137.32 39.44 137.34 38.9C137.2 37.36 137.05 35.82 136.94 34.28C136.87 32.79 136.82 31.3 136.71 29.81C136.58 28.37 136.45 26.93 136.24 25.49C136.04 24.02 135.99 22.53 135.78 21.06C135.64 19.99 135.44 18.93 135.08 17.92C134.71 16.85 134.33 15.77 133.85 14.75C133.68 14.4 133.29 13.84 133.18 13.88C132.53 13.36 133.48 14.25 133.18 14.15C132.38 13.89 132.18 13.82 132.2 13.81C132.05 13.95 132.4 13.63 131.86 13.85C131.82 13.87 131.91 13.97 131.86 13.97C131.35 14.03 130.82 13.75 130.31 13.87C129.8 13.99 129.27 13.97 128.73 13.93C128.55 14.27 128.41 14.62 128.36 14.98C128.15 16.17 128.01 17.38 127.95 18.59C127.88 20.36 127.79 22.12 127.61 23.88C127.45 25.5 127.17 27.11 127.16 28.75C127.14 30.71 127.08 32.66 126.96 34.62C126.92 36.47 126.83 38.32 126.82 40.17C126.79 42.06 126.7 43.95 126.63 45.84C126.6 48.02 126.67 50.2 126.55 52.37C126.49 54.65 126.41 56.94 126.45 59.22C126.46 61.72 126.39 64.23 126.34 66.73C126.21 69.37 126.11 72.02 125.83 74.65C125.65 77.17 125.57 79.69 125.49 82.22C125.35 84.7 125.35 87.18 125.24 89.67C125.12 91.88 124.98 94.08 124.95 96.29C124.93 98.38 124.84 100.47 124.82 102.56C124.9 104.66 124.92 106.76 125 108.86C125.09 110.86 125.13 112.86 125.18 114.87C125.2 116.4 125.05 117.94 125.23 119.47C125.3 120.82 125.48 122.23 125.21 123.56C125.23 124.48 112.86 124.81 112.84 123.89C112.39 122.87 112.33 121.7 112.2 120.58C112 118.8 112.04 117.02 111.97 115.23C111.86 113.31 111.71 111.4 111.64 109.48C111.55 107.33 111.44 105.18 111.4 103.03C111.4 100.75 111.44 98.47 111.5 96.2C111.52 93.91 111.67 91.64 111.7 89.35C111.73 86.86 111.75 84.37 111.8 81.89C111.89 79.17 111.91 76.43 112.17 73.71C112.37 71.24 112.61 68.77 112.72 66.29C112.88 63.97 112.85 61.63 112.89 59.3C112.85 56.89 112.96 54.49 113.06 52.08C113.12 49.89 113.16 47.69 113.28 45.5C113.41 43.63 113.52 41.76 113.62 39.89C113.75 38.05 113.59 36.22 113.66 34.38C113.71 32.44 113.82 30.49 113.91 28.55C113.94 26.58 114.24 24.62 114.49 22.67C114.69 21.05 114.72 19.42 114.88 17.79C115.04 16.14 115.28 14.49 115.61 12.86C115.94 11.13 116.58 9.51 117.32 7.94C118.24 5.78 119.78 4.18 121.55 2.78C124.4 0.820003 126.87 0.970003 130.22 0.880003C131.5 0.910003 132.77 0.790003 134.04 0.980003C135.74 1.07 137.1 1.46 138.66 2.2C140.42 2.75 141.74 3.95 143.03 5.29C143.43 5.75 143.75 6.26 144.08 6.75C144.13 6.7 144.16 6.65 144.21 6.6C145.3 5.55 146.6 4.84 147.85 4.03C149.4 3.08 151.14 2.6 152.9 2.31C155.36 1.97 157.85 1.92 160.32 2.16C161.94 2.09 163.39 2.86 164.89 3.38C166.54 4.11 167.92 5.25 169.33 6.37C170.7 7.69 171.89 9.14 172.89 10.79C173.93 12.63 174.47 14.67 174.9 16.74C175.24 18.5 175.39 20.29 175.54 22.07C175.67 23.76 175.72 25.45 175.8 27.15C175.86 28.82 175.9 30.49 175.95 32.16C175.95 33.89 176.08 35.61 176.11 37.33C176.06 39.21 175.71 41.06 175.62 42.94H175.63ZM129.57 13.49C129.82 13.12 129.98 13.23 129.7 13.12C129.67 12.87 129.39 12.34 129.26 12.96C129.1 13.28 128.93 13.58 128.77 13.88C129.16 13.87 129.55 13.85 129.94 13.84C129.75 13.8 129.37 13.79 129.57 13.49V13.49ZM132.21 13.8C132.21 13.8 132.21 13.8 132.2 13.81C132.35 13.83 133.08 14.03 132.21 13.8ZM157.76 14.93C157.76 14.93 157.74 14.97 157.75 15.01C157.88 15.01 158 15.01 158.11 15.01C157.97 14.97 157.83 14.94 157.77 14.94L157.76 14.93Z" fill="#4389BA"/>
<path id="o" d="M228.28 111.53C225.61 122.85 214.9 123.33 204.86 124.22C198.76 124.76 192.02 124.7 188.6 118.69C185.02 111.83 185.59 103.5 185.68 96C185.86 81.1 184.82 65.92 184.02 51.2C183.82 47.57 183.53 43.83 183.26 40.03C182.52 29.56 181.95 24.8 184.02 14.94C185.09 10.15 187.43 6.37 192.13 4.41C196.03 2.78 200.39 2.72 204.6 3.03C210.34 3.46 216.4 4.75 220.46 8.81C225.55 13.9 226.6 16.17 226.6 23.04C226.6 44.78 227.18 66.53 228.39 88.24C228.82 95.93 230.07 103.91 228.27 111.52L228.28 111.53ZM212.76 49.31C212.76 44.23 212.78 39.16 212.79 34.08C212.79 31.54 212.79 28.99 212.79 26.45C212.79 24.43 213.24 22.44 212.79 20.43C211.69 20.63 211.39 18.58 210.82 18.01C209.99 17.18 208.81 16.76 207.68 16.56C204.51 16.56 201.33 16 198.12 16.06C197.96 16.06 197.79 16.07 197.68 16.19C197.59 16.28 197.57 16.43 197.56 16.55C196.93 22.47 196.71 28.41 196.93 34.36C197.2 41.48 197.73 48.61 198.14 55.71C199.03 71.15 199.32 86.62 199.52 102.08C199.55 103.94 198.59 110.02 200.21 111.4C200.25 111.44 200.32 111.44 200.37 111.47C200.32 111.47 200.26 111.47 200.21 111.46C200.34 112.07 200.54 113.04 200.72 112.82C200.81 112.44 200.39 112.08 200.92 111.99C200.98 111.97 201.12 111.99 201.11 111.92C201.1 111.83 201.02 111.78 200.94 111.72C201.77 111.89 202.86 111.7 203.54 111.66C206.38 111.51 209.67 111.2 212.39 110.33C213.09 110.11 213.81 109.82 214.27 109.24C214.79 108.58 214.85 107.68 214.88 106.85C215.62 87.57 212.03 68.5 212.76 49.28V49.31ZM199.26 111.44C195.88 111.28 197.55 111.55 198.71 111.48C198.89 111.47 199.08 111.46 199.26 111.44ZM200.86 111.68C200.86 111.68 200.91 111.73 200.94 111.76C200.72 111.71 200.53 111.61 200.36 111.5C200.53 111.5 200.69 111.52 200.88 111.53C200.93 111.53 200.83 111.64 200.86 111.68Z" fill="#4389BA"/>
<path id="r1" d="M274.51 24C274.44 25.52 274.38 27.04 274.37 28.56C274.37 30.24 274.28 31.92 274.17 33.6C274.05 35.12 273.96 36.65 273.91 38.18C273.85 39.72 273.82 41.27 273.81 42.81C273.86 44.6 273.69 46.36 273.41 48.13C273.19 49.46 273.07 50.8 272.96 52.14C272.89 53.72 272.8 55.29 272.64 56.85C272.54 58.42 272.39 59.99 272.2 61.55C272.02 62.9 271.9 64.26 271.84 65.62C271.69 67.46 271.36 69.25 270.77 71.01C270.18 72.8 269.18 74.42 268.04 75.91C267.04 77.23 265.69 78.15 264.39 79.13C264.3 79.2 264.11 79.33 263.9 79.48C264.56 80.01 265.19 80.58 265.73 81.22C267.68 83.49 265.73 81.35 266.87 82.59C268.11 84.07 268.98 85.8 269.72 87.57C270.26 88.89 270.74 90.24 271.19 91.59C271.52 92.91 271.88 94.19 272.27 95.49C272.76 97.13 273.05 98.82 273.25 100.52C273.44 102.17 273.54 103.83 273.6 105.49C273.66 107.1 273.7 108.72 273.71 110.33C273.73 111.84 273.74 113.35 273.75 114.86C273.82 116.29 273.94 117.72 274.03 119.15C274.05 120.57 274.23 121.98 274.27 123.4C274.31 124.32 261.3 124.91 261.26 123.99C261.1 122.58 260.93 121.17 260.91 119.74C260.85 118.28 260.74 116.82 260.6 115.36C260.49 113.73 260.54 112.09 260.52 110.45C260.49 108.93 260.48 107.42 260.44 105.9C260.38 104.54 260.34 103.18 260.21 101.82C260.08 100.75 259.95 99.68 259.65 98.65C259.29 97.47 258.99 96.27 258.68 95.07C258.31 93.96 257.83 92.89 257.37 91.82C257.08 91.14 256.73 90.52 256.18 90.02C255.76 89.53 255.3 89.02 254.69 88.91C254.64 89.29 253.66 89.12 253.04 89.02C253.07 88.93 253.08 88.81 253.11 88.61C252.3 88.66 251.48 88.71 250.68 88.64C250.59 88.69 250.41 88.56 250.19 88.31C250.15 88.34 250.11 88.37 250.08 88.4C250.02 88.46 249.94 88.5 249.88 88.56C249.88 88.92 249.88 89.29 249.88 89.65C249.89 91.16 249.89 92.67 249.9 94.18C249.97 95.61 250.08 97.04 250.18 98.47C250.27 100.05 250.3 101.63 250.35 103.21C250.38 104.8 250.39 106.39 250.41 107.98C250.37 109.45 250.49 110.92 250.6 112.39C250.71 113.84 250.56 115.29 250.64 116.74C250.59 118.13 250.55 119.52 250.5 120.92C250.46 121.21 250.42 121.51 250.38 121.8C250.31 122.71 237.42 121.66 237.49 120.74V120.45C237.55 119.38 237.67 118.3 237.62 117.23C237.57 115.87 237.5 114.51 237.41 113.14C237.31 111.44 237.17 109.75 237.2 108.05C237.2 106.51 237.18 104.96 237.16 103.42C237.15 101.96 237.11 100.51 237.05 99.05C237 97.58 236.88 96.12 236.75 94.65C236.64 93 236.7 91.34 236.68 89.69C236.66 88.11 236.66 86.54 236.65 84.96C236.62 83.41 236.61 81.86 236.55 80.31C236.48 78.82 236.42 77.32 236.28 75.83C236.1 74.2 235.88 72.57 235.72 70.93C235.56 69.15 235.61 67.37 235.6 65.58C235.58 63.84 235.58 62.1 235.55 60.36C235.51 58.39 235.48 56.42 235.47 54.44C235.47 52.41 235.56 50.38 235.5 48.35C235.5 46.34 235.55 44.34 235.57 42.33C235.58 40.41 235.64 38.5 235.66 36.58C235.76 34.63 235.75 32.67 235.91 30.72C236.06 28.92 236.33 27.14 236.57 25.35C236.74 23.98 236.7 22.62 236.71 21.24C236.7 19.65 236.72 18.07 236.73 16.48C236.73 14.91 236.76 13.33 236.79 11.75C236.82 10.22 236.88 8.69 237 7.17C237.1 5.92 237.21 4.64001 237.63 3.45001C237.7 2.95001 241.77 3.3 245.22 3.86C245.8 3.83 246.37 3.78 246.95 3.76C247.06 3.76 248.19 3.69001 248.3 3.71001C248.35 3.71001 248.36 3.81 248.41 3.82C248.83 3.95 249.46 3.73001 249.86 3.64001C252.51 2.95001 255.25 3.10001 257.95 3.40001C259.07 3.53001 260.2 3.53 261.32 3.58C262.16 3.88 263.1 3.77001 263.96 3.98001C264.57 4.13001 265.17 4.34001 265.78 4.51001C267.73 4.94001 269.38 6.16 270.84 7.46C272.67 9.18 273.5 11.47 274.05 13.85C274.38 15.5 274.49 17.19 274.6 18.87C274.71 20.57 274.57 22.28 274.51 23.99V24ZM261.48 19.43C261.45 18.39 261.39 17.35 261.26 16.32C261.21 16.28 261.18 16.24 261.05 16.21C261.04 16.21 260.99 16.36 260.98 16.36C260.75 16.38 260.18 16.2 260.04 16.17C259.89 16.14 259.74 16.11 259.58 16.07C259.56 16.1 259.54 16.15 259.5 16.15C258.85 16.15 258.19 15.86 257.53 16.01C256.46 15.94 255.39 15.82 254.32 15.71C253.02 15.99 251.75 16.45 250.4 16.31C250.23 16.31 250.05 16.31 249.88 16.31C249.88 16.4 249.88 16.48 249.88 16.57C249.87 18.14 249.88 19.71 249.87 21.28C249.9 23.09 249.89 24.89 249.68 26.69C249.39 28.3 249.35 29.92 249.25 31.54C249.16 33.32 249.02 35.1 249.02 36.89C248.95 38.74 248.97 40.59 248.94 42.44C248.94 44.42 248.97 46.41 248.95 48.39C248.88 50.41 248.97 52.44 248.96 54.46C248.95 56.43 248.92 58.4 248.87 60.37C248.84 62.11 248.84 63.85 248.82 65.59C248.87 67.07 248.73 68.55 248.83 70.02C249 71.06 249.1 72.12 249.22 73.17C249.32 73.11 249.41 73.03 249.52 72.98C250.6 72.52 251.52 71.8 252.58 71.29C253.4 70.73 254.31 70.18 255.26 69.9C255.71 69.59 256.15 69.26 256.6 68.96C256.73 68.87 256.84 68.73 256.99 68.67C257.03 68.67 257.04 68.74 257.06 68.77C257.12 68.73 257.18 68.7 257.24 68.67C257.42 68.52 257.55 68.33 257.73 68.2C257.75 68.2 257.78 68.27 257.79 68.25C257.98 68.01 258.09 67.68 258.28 67.43C258.61 66.64 258.61 65.78 258.68 64.94C258.79 63.39 258.92 61.84 259.11 60.3C259.27 58.81 259.28 57.3 259.46 55.81C259.6 54.29 259.73 52.79 259.81 51.27C259.93 49.66 260.11 48.06 260.38 46.47C260.56 45.2 260.62 43.95 260.57 42.67C260.6 41.03 260.62 39.4 260.68 37.76C260.76 36.11 260.83 34.45 260.96 32.8C261.08 31.31 261.15 29.82 261.14 28.33C261.19 26.71 261.22 25.09 261.31 23.47C261.39 22.13 261.5 20.78 261.45 19.44L261.48 19.43ZM250.64 88.78C250.72 88.78 250.8 88.8 250.88 88.8C250.66 88.78 250.44 88.77 250.17 88.77C250.27 88.77 250.53 88.77 250.65 88.77L250.64 88.78ZM252.55 88.97C252.62 88.96 252.8 88.97 253.03 89.01C252.94 89.33 252.72 89.03 251.49 88.86C251.84 88.9 252.2 88.92 252.56 88.96L252.55 88.97ZM254.28 15.7C254.11 15.68 253.94 15.67 253.76 15.65C252.6 15.57 251.09 15.81 254.28 15.7ZM254.39 15.69C254.83 15.67 255.32 15.65 255.94 15.62C256 15.62 256.06 15.47 256 15.45C255.83 15.42 255.65 15.49 255.48 15.51C255.3 15.53 255.12 15.55 254.94 15.58C254.75 15.61 254.57 15.66 254.38 15.69H254.39Z" fill="#4389BA"/>
<path id="r2" d="M319.91 24C319.84 25.52 319.78 27.04 319.77 28.56C319.77 30.24 319.68 31.92 319.57 33.6C319.45 35.12 319.36 36.65 319.31 38.18C319.25 39.72 319.22 41.27 319.21 42.81C319.26 44.6 319.09 46.36 318.81 48.13C318.59 49.46 318.47 50.8 318.36 52.14C318.29 53.72 318.2 55.29 318.04 56.85C317.94 58.42 317.79 59.99 317.6 61.55C317.42 62.9 317.3 64.26 317.24 65.62C317.09 67.46 316.76 69.25 316.17 71.01C315.58 72.8 314.58 74.42 313.44 75.91C312.44 77.23 311.09 78.15 309.79 79.13C309.7 79.2 309.51 79.33 309.3 79.48C309.96 80.01 310.59 80.58 311.13 81.22C313.08 83.49 311.13 81.35 312.27 82.59C313.51 84.07 314.38 85.8 315.12 87.57C315.66 88.89 316.14 90.24 316.59 91.59C316.92 92.91 317.28 94.19 317.67 95.49C318.16 97.13 318.45 98.82 318.65 100.52C318.84 102.17 318.94 103.83 319 105.49C319.06 107.1 319.1 108.72 319.11 110.33C319.13 111.84 319.14 113.35 319.15 114.86C319.22 116.29 319.34 117.72 319.43 119.15C319.45 120.57 319.63 121.98 319.67 123.4C319.71 124.32 306.7 124.91 306.66 123.99C306.5 122.58 306.33 121.17 306.31 119.74C306.25 118.28 306.14 116.82 306 115.36C305.89 113.73 305.94 112.09 305.92 110.45C305.89 108.93 305.88 107.42 305.84 105.9C305.78 104.54 305.74 103.18 305.61 101.82C305.48 100.75 305.35 99.68 305.05 98.65C304.69 97.47 304.39 96.27 304.08 95.07C303.71 93.96 303.23 92.89 302.77 91.82C302.48 91.14 302.13 90.52 301.58 90.02C301.16 89.53 300.7 89.02 300.09 88.91C300.04 89.29 299.06 89.12 298.44 89.02C298.47 88.93 298.48 88.81 298.51 88.61C297.7 88.66 296.88 88.71 296.08 88.64C295.99 88.69 295.81 88.56 295.59 88.31C295.55 88.34 295.51 88.37 295.48 88.4C295.42 88.46 295.34 88.5 295.28 88.56C295.28 88.92 295.28 89.29 295.28 89.65C295.29 91.16 295.29 92.67 295.3 94.18C295.37 95.61 295.48 97.04 295.58 98.47C295.67 100.05 295.7 101.63 295.75 103.21C295.78 104.8 295.79 106.39 295.81 107.98C295.77 109.45 295.89 110.92 296 112.39C296.11 113.84 295.96 115.29 296.04 116.74C295.99 118.13 295.95 119.52 295.9 120.92C295.86 121.21 295.82 121.51 295.78 121.8C295.71 122.71 282.82 121.66 282.89 120.74V120.45C282.95 119.38 283.07 118.3 283.02 117.23C282.97 115.87 282.9 114.51 282.81 113.14C282.71 111.44 282.57 109.75 282.6 108.05C282.6 106.51 282.58 104.96 282.56 103.42C282.55 101.96 282.51 100.51 282.45 99.05C282.4 97.58 282.28 96.12 282.15 94.65C282.04 93 282.1 91.34 282.08 89.69C282.06 88.11 282.06 86.54 282.05 84.96C282.02 83.41 282.01 81.86 281.95 80.31C281.88 78.82 281.82 77.32 281.68 75.83C281.5 74.2 281.28 72.57 281.12 70.93C280.96 69.15 281.01 67.37 281 65.58C280.98 63.84 280.98 62.1 280.95 60.36C280.91 58.39 280.88 56.42 280.87 54.44C280.87 52.41 280.96 50.38 280.9 48.35C280.9 46.34 280.95 44.34 280.97 42.33C280.98 40.41 281.04 38.5 281.06 36.58C281.16 34.63 281.15 32.67 281.31 30.72C281.46 28.92 281.73 27.14 281.97 25.35C282.14 23.98 282.1 22.62 282.11 21.24C282.1 19.65 282.12 18.07 282.13 16.48C282.13 14.91 282.16 13.33 282.19 11.75C282.22 10.22 282.28 8.69 282.4 7.17C282.5 5.92 282.61 4.64001 283.03 3.45001C283.1 2.95001 287.17 3.3 290.62 3.86C291.2 3.83 291.77 3.78 292.35 3.76C292.46 3.76 293.59 3.69001 293.7 3.71001C293.75 3.71001 293.76 3.81 293.81 3.82C294.23 3.95 294.86 3.73001 295.26 3.64001C297.91 2.95001 300.65 3.10001 303.35 3.40001C304.47 3.53001 305.6 3.53 306.72 3.58C307.56 3.88 308.5 3.77001 309.36 3.98001C309.97 4.13001 310.57 4.34001 311.18 4.51001C313.13 4.94001 314.78 6.16 316.24 7.46C318.07 9.18 318.9 11.47 319.45 13.85C319.78 15.5 319.89 17.19 320 18.87C320.11 20.57 319.97 22.28 319.91 23.99V24ZM306.88 19.43C306.85 18.39 306.79 17.35 306.66 16.32C306.61 16.28 306.58 16.24 306.45 16.21C306.44 16.21 306.39 16.36 306.38 16.36C306.15 16.38 305.58 16.2 305.44 16.17C305.29 16.14 305.14 16.11 304.98 16.07C304.96 16.1 304.94 16.15 304.9 16.15C304.25 16.15 303.59 15.86 302.93 16.01C301.86 15.94 300.79 15.82 299.72 15.71C298.42 15.99 297.15 16.45 295.8 16.31C295.63 16.31 295.45 16.31 295.28 16.31C295.28 16.4 295.28 16.48 295.28 16.57C295.27 18.14 295.28 19.71 295.27 21.28C295.3 23.09 295.29 24.89 295.08 26.69C294.79 28.3 294.75 29.92 294.65 31.54C294.56 33.32 294.42 35.1 294.42 36.89C294.35 38.74 294.37 40.59 294.34 42.44C294.34 44.42 294.37 46.41 294.35 48.39C294.28 50.41 294.37 52.44 294.36 54.46C294.35 56.43 294.32 58.4 294.27 60.37C294.24 62.11 294.24 63.85 294.22 65.59C294.27 67.07 294.13 68.55 294.23 70.02C294.4 71.06 294.5 72.12 294.62 73.17C294.72 73.11 294.81 73.03 294.92 72.98C296 72.52 296.92 71.8 297.98 71.29C298.8 70.73 299.71 70.18 300.66 69.9C301.11 69.59 301.55 69.26 302 68.96C302.13 68.87 302.24 68.73 302.39 68.67C302.43 68.67 302.44 68.74 302.46 68.77C302.52 68.73 302.58 68.7 302.64 68.67C302.82 68.52 302.95 68.33 303.13 68.2C303.15 68.2 303.18 68.27 303.19 68.25C303.38 68.01 303.49 67.68 303.68 67.43C304.01 66.64 304.01 65.78 304.08 64.94C304.19 63.39 304.32 61.84 304.51 60.3C304.67 58.81 304.68 57.3 304.86 55.81C305 54.29 305.13 52.79 305.21 51.27C305.33 49.66 305.51 48.06 305.78 46.47C305.96 45.2 306.02 43.95 305.97 42.67C306 41.03 306.02 39.4 306.08 37.76C306.16 36.11 306.23 34.45 306.36 32.8C306.48 31.31 306.55 29.82 306.54 28.33C306.59 26.71 306.62 25.09 306.71 23.47C306.79 22.13 306.9 20.78 306.85 19.44L306.88 19.43ZM296.04 88.78C296.12 88.78 296.2 88.8 296.28 88.8C296.06 88.78 295.84 88.77 295.57 88.77C295.67 88.77 295.93 88.77 296.05 88.77L296.04 88.78ZM297.95 88.97C298.02 88.96 298.2 88.97 298.43 89.01C298.34 89.33 298.12 89.03 296.89 88.86C297.24 88.9 297.6 88.92 297.96 88.96L297.95 88.97ZM299.68 15.7C299.51 15.68 299.34 15.67 299.16 15.65C298 15.57 296.49 15.81 299.68 15.7ZM299.79 15.69C300.23 15.67 300.72 15.65 301.34 15.62C301.4 15.62 301.46 15.47 301.4 15.45C301.23 15.42 301.05 15.49 300.88 15.51C300.7 15.53 300.52 15.55 300.34 15.58C300.15 15.61 299.97 15.66 299.78 15.69H299.79Z" fill="#4389BA"/>
<path id="i" d="M342.3 37.03C342.3 37.3 342.3 37.58 342.3 37.85C342.3 39.48 342.29 41.1 342.28 42.73C342.28 44.37 342.25 43.89 342.2 45.53C342.17 47.2 342.09 48.87 341.97 50.53C341.85 52.16 341.66 52.74 341.41 54.35C341.23 55.62 341.18 56.88 341.24 58.17C341.23 59.79 341.24 60.36 341.24 61.98C341.22 63.61 341.24 65.24 341.22 66.87C341.2 68.52 341.19 70.17 341.16 71.81C341.11 73.5 341.08 75.18 340.99 76.87C340.89 78.39 340.79 79.91 340.72 81.43C340.71 83.07 340.72 84.7 340.72 86.34C340.71 88.01 340.72 89.68 340.74 91.35C340.74 93.11 340.76 94.87 340.78 96.63C340.78 98.52 340.82 100.41 340.73 102.3C340.72 103.98 340.62 105.67 340.62 107.35C340.57 108.97 340.53 110.59 340.43 112.22C340.32 113.76 340.19 115.3 340 116.83C339.84 118.21 339.84 119.6 339.66 120.98C339.56 121.92 339.44 122.86 339.24 123.78C339.24 124.68 326.57 124.68 326.57 123.78C326.23 122.58 326.35 121.31 326.42 120.09C326.45 118.59 326.58 117.1 326.74 115.6C326.91 114.26 327.01 112.91 327.07 111.56C327.14 110.09 327.18 108.61 327.19 107.14C327.26 105.51 327.18 103.88 327.19 102.25C327.12 100.38 327.17 98.51 327.18 96.63C327.2 94.87 327.23 93.12 327.23 91.37C327.24 89.7 327.26 88.04 327.25 86.37C327.25 84.74 327.27 83.1 327.25 81.46C327.3 79.73 327.46 78 327.54 76.27C327.63 74.71 327.69 73.15 327.7 71.59C327.73 70 327.76 68.41 327.76 66.81C327.77 65.2 327.79 63.59 327.78 61.98C327.78 60.36 327.8 59.8 327.78 58.18C327.7 56.35 327.87 54.53 328.15 52.72C328.37 51.36 328.48 51.04 328.6 49.67C328.7 48.2 328.73 46.72 328.78 45.25C328.82 43.68 328.82 44.22 328.84 42.65C328.85 41.05 328.84 39.44 328.86 37.84C328.86 37.57 328.86 37.3 328.86 37.03C328.86 36.08 342.3 36.1 342.31 37.05L342.3 37.03ZM343.44 6.8C343.29 8.19 343.19 9.57 343.16 10.97C343.09 12.56 342.97 14.14 342.79 15.72C342.66 17.14 342.59 18.56 342.51 19.99C342.4 21.32 342.26 21.6 342.21 22.94C342.16 23.97 342.17 25.03 341.92 26.04C341.92 26.94 329.25 26.94 329.25 26.04C329 25.03 329.01 23.97 328.96 22.94C328.9 21.36 329.06 20.84 329.14 19.26C329.18 17.68 329.34 16.11 329.52 14.55C329.67 13.18 329.72 11.8 329.79 10.42C329.79 8.86 330.02 7.32 330.14 5.77C330.15 5.31 330.22 4.88 330.34 4.44C330.34 3.52 343.38 3.5 343.38 4.42C343.48 5.21 343.54 6 343.43 6.79L343.44 6.8Z" fill="#4389BA"/>
<path id="s" d="M386.99 15.67C387.23 17.43 387.25 19.17 387.05 20.94C386.83 22.35 386.74 23.78 386.53 25.19C386.27 26.55 386.18 27.94 385.96 29.3C385.73 30.56 385.62 31.83 385.51 33.1C385.43 34.54 385.16 35.95 385.04 37.39C384.92 38.75 384.86 40.12 384.83 41.48C384.79 43.01 384.75 44.53 384.75 46.06C384.64 47.49 384.67 46.89 384.64 47.85C384.61 48.8 371.18 48.27 371.22 47.32C371.29 46.15 371.22 46.61 371.33 45.92C371.37 44.3 371.38 42.68 371.45 41.06C371.53 39.46 371.61 37.85 371.78 36.25C371.94 34.88 372.12 33.5 372.23 32.13C372.36 30.65 372.56 29.17 372.8 27.7C372.95 26.34 373.12 24.99 373.33 23.64C373.49 22.29 373.65 20.93 373.88 19.59C373.94 19.13 373.95 18.66 373.94 18.19C373.2 18.26 372.46 18.34 371.74 18.53C370.54 18.83 369.39 19.34 368.14 19.29C367.5 19.4 366.88 19.62 366.23 19.65C365.81 19.69 365.93 19.79 365.68 19.98C365.62 20.6 365.57 21.24 365.62 21.26C365.55 23 365.43 24.75 365.21 26.48C365.01 28.08 364.74 29.67 364.35 31.24C363.99 32.43 364.1 33.74 363.83 34.96C363.76 36.21 363.77 37.45 363.83 38.7C363.89 40.44 363.92 42.19 363.78 43.93C363.72 45.33 363.74 46.72 363.81 48.12C363.89 49.39 363.94 50.66 364.13 51.92C364.24 52.49 364.3 53.1 364.58 53.62C364.58 53.62 364.77 53.73 364.78 53.73C364.82 53.71 364.67 53.6 364.71 53.6C364.99 53.57 365.21 54.09 365.47 53.99C366.68 54.44 367.67 55.42 368.8 56.03C369.94 56.84 371.13 57.6 372.17 58.54C373.06 58.97 373.77 59.79 374.67 60.22C375.7 60.73 376.62 61.43 377.59 62.03C378.89 62.94 380.11 63.94 381.11 65.2C382.28 66.7 383.28 68.32 383.85 70.16C384.45 72.11 384.86 74.11 384.76 76.16C384.8 77.8 384.82 79.45 384.89 81.09C384.98 82.88 385.07 84.68 385.18 86.48C385.28 88.55 385.23 90.61 385.11 92.68C385 94.5 384.9 96.31 384.76 98.12C384.63 99.91 384.76 101.71 384.69 103.5C384.67 105.71 384.6 107.91 384.29 110.09C384.03 112.2 383.8 114.33 383.14 116.36C382.03 119.38 380.53 121.78 377.6 123.33C375.9 123.96 374.37 124.57 372.52 124.42C369.8 124.42 367.2 124.47 364.57 123.78C363.18 123.52 361.77 123.39 360.44 122.9C358.34 122.14 356.37 121.08 354.83 119.43C353.22 117.64 351.97 115.64 351.29 113.3C350.7 111.37 350.33 109.39 350.17 107.37C349.93 105.37 349.85 103.36 349.79 101.34C349.77 99.06 349.83 96.79 349.97 94.52C350.1 92.29 350.31 90.07 350.46 87.84C350.59 85.95 350.83 84.08 351 82.19C351.17 80.89 351.29 79.55 351.72 78.3C351.85 77.41 364.39 79.17 364.27 80.05H364.29C364.4 80.95 364.38 81.86 364.42 82.76C364.4 84.69 364.31 86.62 364.19 88.56C364.17 90.82 364 93.08 363.81 95.34C363.65 97.28 363.48 99.23 363.53 101.19C363.56 102.93 363.56 104.67 363.64 106.41C363.66 107.64 363.95 108.8 364.31 109.96C364.51 110.53 364.75 111.08 365.34 111.31C365.5 111.06 366.28 111.15 366.57 111.17C367.6 111.17 368.58 111.44 369.58 111.64C369.88 111.64 370.18 111.64 370.48 111.64C370.65 110.75 370.79 109.86 370.85 108.96C370.87 107.03 370.94 105.11 371.03 103.18C371.06 101.24 371.2 99.31 371.31 97.37C371.44 95.65 371.54 93.94 371.57 92.22C371.63 90.45 371.64 88.67 371.61 86.9C371.54 85.1 371.47 83.3 371.43 81.49C371.38 79.76 371.34 78.04 371.34 76.32C371.34 75.37 371.42 74.45 371.09 73.55C371.09 74.28 370.94 72.73 370.86 72.93C370.83 73.02 370.99 73.25 370.9 73.21C370.66 73.11 370.65 72.74 370.37 72.65C370.16 72.83 370.1 72.09 369.87 72.14C369.78 72.16 369.92 72.46 369.84 72.42C369.5 72.28 369.23 72.03 368.91 71.86C368.71 71.71 368.52 71.54 368.3 71.4C367.78 71.07 368.19 71.45 367.71 71.18C367.06 70.83 366.43 70.4 365.84 69.96C364.66 69.21 363.49 68.35 362.46 67.4C361.66 66.84 360.86 66.32 360.02 65.82C359.87 65.74 359.72 65.68 359.58 65.59C358.77 65.07 359.19 65.24 358.5 64.84C358.39 64.78 358.28 64.73 358.16 64.67C358.09 64.67 358.01 64.7 357.95 64.67C357.68 64.53 357.43 64.34 357.18 64.18C355.39 63.18 354.09 61.57 353 59.87C351.94 58.04 351.38 56.01 351 53.95C350.7 52.23 350.55 50.48 350.46 48.74C350.35 46.97 350.3 45.2 350.38 43.44C350.51 41.97 350.45 40.5 350.41 39.02C350.31 37.27 350.41 35.51 350.62 33.77C350.84 32.28 350.95 30.78 351.17 29.3C351.45 27.88 351.7 26.45 351.9 25.01C352.07 23.59 352.14 22.16 352.21 20.74C352.19 18.64 352.67 16.63 353.39 14.67C354.24 12.73 355.75 11.31 357.37 10.01C358.72 9.01001 360.24 8.31001 361.81 7.74001C363.08 7.22001 364.42 7.07001 365.73 6.70001C367.25 6.25001 368.79 5.92001 370.36 5.68001C373.1 5.18001 375.85 5.31001 378.62 5.36001C381.43 5.79001 383.37 7.38001 385.05 9.58001C386.29 11.4 386.71 13.54 387 15.68L386.99 15.67ZM370.43 111.65C370.15 111.65 369.88 111.65 369.6 111.65C369.66 111.66 369.71 111.67 369.77 111.69C369.98 111.73 370.19 111.75 370.4 111.77C370.4 111.73 370.42 111.7 370.42 111.67L370.43 111.65ZM371.9 111.67C371.58 111.66 371.26 111.67 370.95 111.66C370.95 111.69 370.95 111.71 370.93 111.77C371.13 111.77 371.33 111.77 371.52 111.72C371.65 111.68 372.04 111.67 371.91 111.67H371.9Z" fill="#4389BA"/>
</g>
<g id="mark">
<path id="shape" d="M51.64 21.15L67.74 0.310003C69.23 -1.61 72.19 -1.39 73.35 0.750003C82.1 16.88 109.84 72.87 92.2 104.97C86.08 116.11 79.37 124.29 48.98 124.29C16.37 124.29 11.88 116.1 5.76001 104.97C-11.89 72.87 15.85 16.88 24.6 0.750003C25.76 -1.39 28.73 -1.61 30.21 0.310003L46.31 21.14C47.66 22.88 50.29 22.88 51.63 21.14L51.64 21.15Z" fill="#4389BA"/>
<path id="heart-line" d="M19.27 123.06C22.29 121.49 25.3 119.88 28.29 118.22C45.82 108.5 63.57 96.35 73.8 75.69C77.21 68.81 79.13 58.2 73.85 53.26C71.93 51.46 69.46 50.96 67.12 50.98C58.72 51.06 50.72 57.67 47.27 67.38C47.25 67.43 47.19 67.43 47.17 67.38C44.01 60.35 37.67 55.42 31.52 56.4C25.33 57.39 20.15 65.2 21.22 73.19C22.15 80.15 26.99 85.21 31.8 88.73C46.31 99.34 63.53 102.27 79.83 99.99C86.84 99.01 93.71 97.12 100.45 94.6" stroke="white" stroke-width="8" stroke-miterlimit="10"/>
<path id="heart" d="M71.29 73.64C68.22 79.86 64.32 85.5 59.34 90.93L55.09 95.57L49.83 93.76C44.07 91.78 38.8 89.03 34.19 85.58L34.14 85.55L34.1 85.52C28.6 81.54 25.5 77.09 24.87 72.3C24 65.88 28.04 60.12 32.12 59.36C32.4 59.32 32.68 59.3 32.96 59.3C35.68 59.3 38.67 60.91 41.16 63.7L48.15 71.54L53.85 62.72C57.32 57.36 62.68 53.99 67.87 53.91C70.75 53.92 71.74 54.87 72.06 55.18L72.11 55.23L72.15 55.27C75.28 58.19 74.89 66.43 71.29 73.64V73.64Z" fill="#CF5E45"/>
</g>
</g>
</svg>
