<svg width="606" height="597" viewBox="0 0 606 597" fill="none" xmlns="http://www.w3.org/2000/svg">
<rect width="606" height="597" fill="white"/>
<path d="M528 207.982V388.018C527.991 395.911 525.676 403.663 521.288 410.497C516.901 417.33 510.593 423.005 503 426.951L328 516.97C320.399 520.92 311.777 523 303 523C294.223 523 285.601 520.92 278 516.97L103 426.951C95.4066 423.005 89.0995 417.33 84.7115 410.497C80.3236 403.663 78.009 395.911 78 388.018V207.982C78.009 200.089 80.3236 192.337 84.7115 185.503C89.0995 178.67 95.4066 172.995 103 169.049L278 79.0301C285.601 75.0797 294.223 73 303 73C311.777 73 320.399 75.0797 328 79.0301L503 169.049C510.593 172.995 516.901 178.67 521.288 185.503C525.676 192.337 527.991 200.089 528 207.982Z" stroke="black" stroke-width="3" stroke-linecap="round" stroke-linejoin="round"/>
<path d="M515 212.483V382.517C514.991 389.972 512.806 397.293 508.661 403.747C504.517 410.201 498.56 415.56 491.389 419.287L326.111 504.305C318.932 508.036 310.789 510 302.5 510C294.211 510 286.068 508.036 278.889 504.305L113.611 419.287C106.44 415.56 100.483 410.201 96.3387 403.747C92.1945 397.293 90.0085 389.972 90 382.517V212.483C90.0085 205.028 92.1945 197.707 96.3387 191.253C100.483 184.799 106.44 179.44 113.611 175.713L278.889 90.6951C286.068 86.9642 294.211 85 302.5 85C310.789 85 318.932 86.9642 326.111 90.6951L491.389 175.713C498.56 179.44 504.517 184.799 508.661 191.253C512.806 197.707 514.991 205.028 515 212.483Z" stroke="black" stroke-width="3" stroke-linecap="round" stroke-linejoin="round"/>
<path d="M503 217.984V378.016C502.992 385.032 500.935 391.923 497.034 397.997C493.134 404.071 487.527 409.116 480.778 412.623L325.222 492.64C318.466 496.151 310.802 498 303 498C295.198 498 287.534 496.151 280.778 492.64L125.222 412.623C118.472 409.116 112.866 404.071 108.966 397.997C105.065 391.923 103.008 385.032 103 378.016V217.984C103.008 210.968 105.065 204.077 108.966 198.003C112.866 191.929 118.472 186.884 125.222 183.376L280.778 103.36C287.534 99.8486 295.198 98 303 98C310.802 98 318.466 99.8486 325.222 103.36L480.778 183.376C487.527 186.884 493.134 191.929 497.034 198.003C500.935 204.077 502.992 210.968 503 217.984Z" stroke="black" stroke-width="3" stroke-linecap="round" stroke-linejoin="round"/>
<path d="M490 222.485V372.515C489.993 379.093 488.064 385.553 484.407 391.247C480.75 396.942 475.495 401.671 469.167 404.96L323.333 479.975C316.999 483.267 309.814 485 302.5 485C295.186 485 288.001 483.267 281.667 479.975L135.833 404.96C129.505 401.671 124.25 396.942 120.593 391.247C116.936 385.553 115.007 379.093 115 372.515V222.485C115.007 215.907 116.936 209.447 120.593 203.753C124.25 198.058 129.505 193.329 135.833 190.04L281.667 115.025C288.001 111.733 295.186 110 302.5 110C309.814 110 316.999 111.733 323.333 115.025L469.167 190.04C475.495 193.329 480.75 198.058 484.407 203.753C488.064 209.447 489.993 215.907 490 222.485Z" stroke="black" stroke-width="3" stroke-linecap="round" stroke-linejoin="round"/>
<path d="M478 227.986V368.014C477.993 374.153 476.193 380.183 472.78 385.498C469.367 390.812 464.462 395.226 458.556 398.296L322.444 468.31C316.533 471.382 309.826 473 303 473C296.174 473 289.467 471.382 283.556 468.31L147.444 398.296C141.538 395.226 136.633 390.812 133.22 385.498C129.807 380.183 128.007 374.153 128 368.014V227.986C128.007 221.847 129.807 215.817 133.22 210.502C136.633 205.187 141.538 200.774 147.444 197.704L283.556 127.69C289.467 124.618 296.174 123 303 123C309.826 123 316.533 124.618 322.444 127.69L458.556 197.704C464.462 200.774 469.367 205.187 472.78 210.502C476.193 215.817 477.993 221.847 478 227.986Z" stroke="black" stroke-width="3" stroke-linecap="round" stroke-linejoin="round"/>
<path d="M465 232.487V362.513C464.993 368.214 463.322 373.812 460.153 378.748C456.984 383.683 452.429 387.781 446.944 390.632L320.556 455.645C315.066 458.498 308.839 460 302.5 460C296.161 460 289.934 458.498 284.444 455.645L158.056 390.632C152.571 387.781 148.016 383.683 144.847 378.748C141.678 373.812 140.006 368.214 140 362.513V232.487C140.006 226.786 141.678 221.188 144.847 216.252C148.016 211.317 152.571 207.219 158.056 204.368L284.444 139.355C289.934 136.502 296.161 135 302.5 135C308.839 135 315.066 136.502 320.556 139.355L446.944 204.368C452.429 207.219 456.984 211.317 460.153 216.252C463.322 221.188 464.993 226.786 465 232.487Z" stroke="black" stroke-width="3" stroke-linecap="round" stroke-linejoin="round"/>
<path d="M453 237.988V358.012C452.994 363.274 451.451 368.442 448.526 372.998C445.6 377.554 441.396 381.337 436.333 383.968L319.667 443.98C314.599 446.614 308.851 448 303 448C297.149 448 291.401 446.614 286.333 443.98L169.667 383.968C164.604 381.337 160.4 377.554 157.474 372.998C154.549 368.442 153.006 363.274 153 358.012V237.988C153.006 232.726 154.549 227.558 157.474 223.002C160.4 218.446 164.604 214.663 169.667 212.032L286.333 152.02C291.401 149.386 297.149 148 303 148C308.851 148 314.599 149.386 319.667 152.02L436.333 212.032C441.396 214.663 445.6 218.446 448.526 223.002C451.451 227.558 452.994 232.726 453 237.988Z" stroke="black" stroke-width="3" stroke-linecap="round" stroke-linejoin="round"/>
<path d="M440 242.489V352.511C439.995 357.335 438.58 362.072 435.898 366.248C433.217 370.424 429.363 373.892 424.722 376.304L317.778 431.315C313.133 433.729 307.864 435 302.5 435C297.136 435 291.867 433.729 287.222 431.315L180.278 376.304C175.637 373.892 171.783 370.424 169.101 366.248C166.42 362.072 165.005 357.335 165 352.511V242.489C165.005 237.665 166.42 232.928 169.101 228.752C171.783 224.576 175.637 221.108 180.278 218.696L287.222 163.685C291.867 161.271 297.136 160 302.5 160C307.864 160 313.133 161.271 317.778 163.685L424.722 218.696C429.363 221.108 433.217 224.576 435.898 228.752C438.58 232.928 439.995 237.665 440 242.489Z" stroke="black" stroke-width="3" stroke-linecap="round" stroke-linejoin="round"/>
<path d="M428 247.99V348.01C427.995 352.395 426.709 356.702 424.271 360.498C421.834 364.295 418.33 367.447 414.111 369.64L316.889 419.65C312.666 421.845 307.876 423 303 423C298.124 423 293.334 421.845 289.111 419.65L191.889 369.64C187.67 367.447 184.166 364.295 181.729 360.498C179.291 356.702 178.005 352.395 178 348.01V247.99C178.005 243.605 179.291 239.298 181.729 235.502C184.166 231.705 187.67 228.553 191.889 226.36L289.111 176.35C293.334 174.155 298.124 173 303 173C307.876 173 312.666 174.155 316.889 176.35L414.111 226.36C418.33 228.553 421.834 231.705 424.271 235.502C426.709 239.298 427.995 243.605 428 247.99Z" stroke="black" stroke-width="3" stroke-linecap="round" stroke-linejoin="round"/>
<path d="M415 252.491V342.509C414.995 346.456 413.838 350.332 411.644 353.748C409.45 357.165 406.297 360.002 402.5 361.976L315 406.985C311.2 408.96 306.888 410 302.5 410C298.112 410 293.8 408.96 290 406.985L202.5 361.976C198.703 360.002 195.55 357.165 193.356 353.748C191.162 350.332 190.004 346.456 190 342.509V252.491C190.004 248.544 191.162 244.668 193.356 241.252C195.55 237.835 198.703 234.998 202.5 233.024L290 188.015C293.8 186.04 298.112 185 302.5 185C306.888 185 311.2 186.04 315 188.015L402.5 233.024C406.297 234.998 409.45 237.835 411.644 241.252C413.838 244.668 414.995 248.544 415 252.491Z" stroke="black" stroke-width="3" stroke-linecap="round" stroke-linejoin="round"/>
<path d="M403 257.992V338.008C402.996 341.516 401.967 344.962 400.017 347.999C398.067 351.036 395.264 353.558 391.889 355.312L314.111 395.32C310.733 397.076 306.901 398 303 398C299.099 398 295.267 397.076 291.889 395.32L214.111 355.312C210.736 353.558 207.933 351.036 205.983 347.999C204.033 344.962 203.004 341.516 203 338.008V257.992C203.004 254.484 204.033 251.038 205.983 248.001C207.933 244.964 210.736 242.442 214.111 240.688L291.889 200.68C295.267 198.924 299.099 198 303 198C306.901 198 310.733 198.924 314.111 200.68L391.889 240.688C395.264 242.442 398.067 244.964 400.017 248.001C401.967 251.038 402.996 254.484 403 257.992Z" stroke="black" stroke-width="3" stroke-linecap="round" stroke-linejoin="round"/>
<path d="M390 262.493V332.507C389.997 335.577 389.096 338.591 387.39 341.249C385.684 343.906 383.231 346.113 380.278 347.648L312.222 382.655C309.266 384.191 305.913 385 302.5 385C299.087 385 295.734 384.191 292.778 382.655L224.722 347.648C221.769 346.113 219.316 343.906 217.61 341.249C215.904 338.591 215.003 335.577 215 332.507V262.493C215.003 259.423 215.904 256.409 217.61 253.751C219.316 251.094 221.769 248.887 224.722 247.352L292.778 212.345C295.734 210.809 299.087 210 302.5 210C305.913 210 309.266 210.809 312.222 212.345L380.278 247.352C383.231 248.887 385.684 251.094 387.39 253.751C389.096 256.409 389.997 259.423 390 262.493Z" stroke="black" stroke-width="3" stroke-linecap="round" stroke-linejoin="round"/>
<path d="M378 267.994V328.006C377.997 330.637 377.225 333.221 375.763 335.499C374.3 337.777 372.198 339.668 369.667 340.984L311.333 370.99C308.8 372.307 305.926 373 303 373C300.074 373 297.2 372.307 294.667 370.99L236.333 340.984C233.802 339.668 231.7 337.777 230.237 335.499C228.775 333.221 228.003 330.637 228 328.006V267.994C228.003 265.363 228.775 262.779 230.237 260.501C231.7 258.223 233.802 256.332 236.333 255.016L294.667 225.01C297.2 223.693 300.074 223 303 223C305.926 223 308.8 223.693 311.333 225.01L369.667 255.016C372.198 256.332 374.3 258.223 375.763 260.501C377.225 262.779 377.997 265.363 378 267.994Z" stroke="black" stroke-width="3" stroke-linecap="round" stroke-linejoin="round"/>
<path d="M366 272.495V322.505C365.998 324.698 365.355 326.851 364.136 328.749C362.917 330.647 361.165 332.224 359.056 333.32L310.444 358.325C308.333 359.422 305.938 360 303.5 360C301.062 360 298.667 359.422 296.556 358.325L247.944 333.32C245.835 332.224 244.083 330.647 242.864 328.749C241.645 326.851 241.002 324.698 241 322.505V272.495C241.002 270.302 241.645 268.149 242.864 266.251C244.083 264.353 245.835 262.776 247.944 261.68L296.556 236.675C298.667 235.578 301.062 235 303.5 235C305.938 235 308.333 235.578 310.444 236.675L359.056 261.68C361.165 262.776 362.917 264.353 364.136 266.251C365.355 268.149 365.998 270.302 366 272.495Z" stroke="black" stroke-width="3" stroke-linecap="round" stroke-linejoin="round"/>
<path d="M353 277.996V318.004C352.998 319.758 352.484 321.481 351.509 322.999C350.533 324.518 349.132 325.779 347.444 326.656L308.556 346.66C306.866 347.538 304.95 348 303 348C301.05 348 299.134 347.538 297.444 346.66L258.556 326.656C256.868 325.779 255.467 324.518 254.491 322.999C253.516 321.481 253.002 319.758 253 318.004V277.996C253.002 276.242 253.516 274.519 254.491 273.001C255.467 271.482 256.868 270.221 258.556 269.344L297.444 249.34C299.134 248.462 301.05 248 303 248C304.95 248 306.866 248.462 308.556 249.34L347.444 269.344C349.132 270.221 350.533 271.482 351.509 273.001C352.484 274.519 352.998 276.242 353 277.996Z" stroke="black" stroke-width="3" stroke-linecap="round" stroke-linejoin="round"/>
<path d="M341 282.497V312.503C340.998 313.819 340.613 315.111 339.881 316.249C339.15 317.388 338.099 318.334 336.833 318.992L307.667 333.995C306.4 334.653 304.963 335 303.5 335C302.037 335 300.6 334.653 299.333 333.995L270.167 318.992C268.901 318.334 267.85 317.388 267.119 316.249C266.387 315.111 266.001 313.819 266 312.503V282.497C266.001 281.181 266.387 279.889 267.119 278.751C267.85 277.612 268.901 276.666 270.167 276.008L299.333 261.005C300.6 260.347 302.037 260 303.5 260C304.963 260 306.4 260.347 307.667 261.005L336.833 276.008C338.099 276.666 339.15 277.612 339.881 278.751C340.613 279.889 340.998 281.181 341 282.497Z" stroke="black" stroke-width="3" stroke-linecap="round" stroke-linejoin="round"/>
<path d="M328 287.998V308.002C327.999 308.879 327.742 309.74 327.254 310.5C326.767 311.259 326.066 311.889 325.222 312.328L305.778 322.33C304.933 322.769 303.975 323 303 323C302.025 323 301.067 322.769 300.222 322.33L280.778 312.328C279.934 311.889 279.233 311.259 278.746 310.5C278.258 309.74 278.001 308.879 278 308.002V287.998C278.001 287.121 278.258 286.26 278.746 285.5C279.233 284.741 279.934 284.111 280.778 283.672L300.222 273.67C301.067 273.231 302.025 273 303 273C303.975 273 304.933 273.231 305.778 273.67L325.222 283.672C326.066 284.111 326.767 284.741 327.254 285.5C327.742 286.26 327.999 287.121 328 287.998Z" stroke="black" stroke-width="3" stroke-linecap="round" stroke-linejoin="round"/>
<path d="M316 292.499V302.501C316 302.94 315.871 303.37 315.627 303.75C315.383 304.129 315.033 304.445 314.611 304.664L304.889 309.665C304.467 309.884 303.988 310 303.5 310C303.012 310 302.533 309.884 302.111 309.665L292.389 304.664C291.967 304.445 291.617 304.129 291.373 303.75C291.129 303.37 291 302.94 291 302.501V292.499C291 292.06 291.129 291.63 291.373 291.25C291.617 290.871 291.967 290.555 292.389 290.336L302.111 285.335C302.533 285.116 303.012 285 303.5 285C303.988 285 304.467 285.116 304.889 285.335L314.611 290.336C315.033 290.555 315.383 290.871 315.627 291.25C315.871 291.63 316 292.06 316 292.499Z" stroke="black" stroke-width="3" stroke-linecap="round" stroke-linejoin="round"/>
</svg>
